<mxfile host="app.diagrams.net" agent="Mozilla/5.0 (X11; Ubuntu; Linux x86_64; rv:141.0) Gecko/20100101 Firefox/141.0" version="28.1.1">
  <diagram name="Página-1" id="w2kIhA_1tUEeSSIlJSaH">
    <mxGraphModel dx="746" dy="454" grid="1" gridSize="10" guides="1" tooltips="1" connect="1" arrows="1" fold="1" page="1" pageScale="1" pageWidth="827" pageHeight="1169" math="0" shadow="0">
      <root>
        <mxCell id="0" />
        <mxCell id="1" parent="0" />
        <mxCell id="el5TF62LQUf2bP_EFKbW-8" value="Funcionalidad" style="swimlane;fontStyle=0;childLayout=stackLayout;horizontal=1;startSize=26;fillColor=none;horizontalStack=0;resizeParent=1;resizeParentMax=0;resizeLast=0;collapsible=1;marginBottom=0;whiteSpace=wrap;html=1;" vertex="1" parent="1">
          <mxGeometry x="380" y="503" width="196" height="130" as="geometry">
            <mxRectangle x="274" y="330" width="100" height="30" as="alternateBounds" />
          </mxGeometry>
        </mxCell>
        <mxCell id="el5TF62LQUf2bP_EFKbW-10" value="+ titulo(20:) VarChar" style="text;strokeColor=none;fillColor=none;align=left;verticalAlign=top;spacingLeft=4;spacingRight=4;overflow=hidden;rotatable=0;points=[[0,0.5],[1,0.5]];portConstraint=eastwest;whiteSpace=wrap;html=1;" vertex="1" parent="el5TF62LQUf2bP_EFKbW-8">
          <mxGeometry y="26" width="196" height="26" as="geometry" />
        </mxCell>
        <mxCell id="el5TF62LQUf2bP_EFKbW-11" value="&lt;div&gt;+ ambiente&amp;nbsp;&lt;/div&gt;&lt;div&gt;&lt;br&gt;&lt;/div&gt;" style="text;strokeColor=none;fillColor=none;align=left;verticalAlign=top;spacingLeft=4;spacingRight=4;overflow=hidden;rotatable=0;points=[[0,0.5],[1,0.5]];portConstraint=eastwest;whiteSpace=wrap;html=1;" vertex="1" parent="el5TF62LQUf2bP_EFKbW-8">
          <mxGeometry y="52" width="196" height="26" as="geometry" />
        </mxCell>
        <mxCell id="el5TF62LQUf2bP_EFKbW-14" value="+ resumen&amp;nbsp;(150) VarChar" style="text;strokeColor=none;fillColor=none;align=left;verticalAlign=top;spacingLeft=4;spacingRight=4;overflow=hidden;rotatable=0;points=[[0,0.5],[1,0.5]];portConstraint=eastwest;whiteSpace=wrap;html=1;" vertex="1" parent="el5TF62LQUf2bP_EFKbW-8">
          <mxGeometry y="78" width="196" height="26" as="geometry" />
        </mxCell>
        <mxCell id="el5TF62LQUf2bP_EFKbW-15" value="+ idSolicitante int FK" style="text;strokeColor=none;fillColor=none;align=left;verticalAlign=top;spacingLeft=4;spacingRight=4;overflow=hidden;rotatable=0;points=[[0,0.5],[1,0.5]];portConstraint=eastwest;whiteSpace=wrap;html=1;" vertex="1" parent="el5TF62LQUf2bP_EFKbW-8">
          <mxGeometry y="104" width="196" height="26" as="geometry" />
        </mxCell>
        <mxCell id="el5TF62LQUf2bP_EFKbW-26" value="Topico" style="swimlane;fontStyle=0;childLayout=stackLayout;horizontal=1;startSize=26;fillColor=none;horizontalStack=0;resizeParent=1;resizeParentMax=0;resizeLast=0;collapsible=1;marginBottom=0;whiteSpace=wrap;html=1;" vertex="1" parent="1">
          <mxGeometry x="620" y="170" width="196" height="78" as="geometry">
            <mxRectangle x="274" y="330" width="100" height="30" as="alternateBounds" />
          </mxGeometry>
        </mxCell>
        <mxCell id="el5TF62LQUf2bP_EFKbW-27" value="+ idTopico int PK" style="text;strokeColor=none;fillColor=none;align=left;verticalAlign=top;spacingLeft=4;spacingRight=4;overflow=hidden;rotatable=0;points=[[0,0.5],[1,0.5]];portConstraint=eastwest;whiteSpace=wrap;html=1;" vertex="1" parent="el5TF62LQUf2bP_EFKbW-26">
          <mxGeometry y="26" width="196" height="26" as="geometry" />
        </mxCell>
        <mxCell id="el5TF62LQUf2bP_EFKbW-28" value="+ nomTopico(20) VarChar" style="text;strokeColor=none;fillColor=none;align=left;verticalAlign=top;spacingLeft=4;spacingRight=4;overflow=hidden;rotatable=0;points=[[0,0.5],[1,0.5]];portConstraint=eastwest;whiteSpace=wrap;html=1;" vertex="1" parent="el5TF62LQUf2bP_EFKbW-26">
          <mxGeometry y="52" width="196" height="26" as="geometry" />
        </mxCell>
        <mxCell id="el5TF62LQUf2bP_EFKbW-34" value="Gestion_Error" style="swimlane;fontStyle=0;childLayout=stackLayout;horizontal=1;startSize=26;fillColor=none;horizontalStack=0;resizeParent=1;resizeParentMax=0;resizeLast=0;collapsible=1;marginBottom=0;whiteSpace=wrap;html=1;" vertex="1" parent="1">
          <mxGeometry x="620" y="503" width="196" height="104" as="geometry">
            <mxRectangle x="274" y="330" width="100" height="30" as="alternateBounds" />
          </mxGeometry>
        </mxCell>
        <mxCell id="el5TF62LQUf2bP_EFKbW-36" value="+ titulo VarChar" style="text;strokeColor=none;fillColor=none;align=left;verticalAlign=top;spacingLeft=4;spacingRight=4;overflow=hidden;rotatable=0;points=[[0,0.5],[1,0.5]];portConstraint=eastwest;whiteSpace=wrap;html=1;" vertex="1" parent="el5TF62LQUf2bP_EFKbW-34">
          <mxGeometry y="26" width="196" height="26" as="geometry" />
        </mxCell>
        <mxCell id="el5TF62LQUf2bP_EFKbW-38" value="+ descripción (200) VarChar" style="text;strokeColor=none;fillColor=none;align=left;verticalAlign=top;spacingLeft=4;spacingRight=4;overflow=hidden;rotatable=0;points=[[0,0.5],[1,0.5]];portConstraint=eastwest;whiteSpace=wrap;html=1;" vertex="1" parent="el5TF62LQUf2bP_EFKbW-34">
          <mxGeometry y="52" width="196" height="26" as="geometry" />
        </mxCell>
        <mxCell id="el5TF62LQUf2bP_EFKbW-40" value="+ idAutor int FK" style="text;strokeColor=none;fillColor=none;align=left;verticalAlign=top;spacingLeft=4;spacingRight=4;overflow=hidden;rotatable=0;points=[[0,0.5],[1,0.5]];portConstraint=eastwest;whiteSpace=wrap;html=1;" vertex="1" parent="el5TF62LQUf2bP_EFKbW-34">
          <mxGeometry y="78" width="196" height="26" as="geometry" />
        </mxCell>
        <mxCell id="el5TF62LQUf2bP_EFKbW-42" value="Usuario" style="swimlane;fontStyle=0;childLayout=stackLayout;horizontal=1;startSize=26;fillColor=none;horizontalStack=0;resizeParent=1;resizeParentMax=0;resizeLast=0;collapsible=1;marginBottom=0;whiteSpace=wrap;html=1;" vertex="1" parent="1">
          <mxGeometry x="100" y="430" width="196" height="104" as="geometry">
            <mxRectangle x="274" y="330" width="100" height="30" as="alternateBounds" />
          </mxGeometry>
        </mxCell>
        <mxCell id="el5TF62LQUf2bP_EFKbW-43" value="+ RUT int PK" style="text;strokeColor=none;fillColor=none;align=left;verticalAlign=top;spacingLeft=4;spacingRight=4;overflow=hidden;rotatable=0;points=[[0,0.5],[1,0.5]];portConstraint=eastwest;whiteSpace=wrap;html=1;" vertex="1" parent="el5TF62LQUf2bP_EFKbW-42">
          <mxGeometry y="26" width="196" height="26" as="geometry" />
        </mxCell>
        <mxCell id="el5TF62LQUf2bP_EFKbW-44" value="+ nombreUsuario(35) VarChar" style="text;strokeColor=none;fillColor=none;align=left;verticalAlign=top;spacingLeft=4;spacingRight=4;overflow=hidden;rotatable=0;points=[[0,0.5],[1,0.5]];portConstraint=eastwest;whiteSpace=wrap;html=1;" vertex="1" parent="el5TF62LQUf2bP_EFKbW-42">
          <mxGeometry y="52" width="196" height="26" as="geometry" />
        </mxCell>
        <mxCell id="el5TF62LQUf2bP_EFKbW-45" value="&lt;div&gt;+ eMail (35) VarChar&lt;/div&gt;" style="text;strokeColor=none;fillColor=none;align=left;verticalAlign=top;spacingLeft=4;spacingRight=4;overflow=hidden;rotatable=0;points=[[0,0.5],[1,0.5]];portConstraint=eastwest;whiteSpace=wrap;html=1;" vertex="1" parent="el5TF62LQUf2bP_EFKbW-42">
          <mxGeometry y="78" width="196" height="26" as="geometry" />
        </mxCell>
        <mxCell id="el5TF62LQUf2bP_EFKbW-55" value="ingeniero" style="swimlane;fontStyle=0;childLayout=stackLayout;horizontal=1;startSize=26;fillColor=none;horizontalStack=0;resizeParent=1;resizeParentMax=0;resizeLast=0;collapsible=1;marginBottom=0;whiteSpace=wrap;html=1;" vertex="1" parent="1">
          <mxGeometry x="60" y="100" width="196" height="130" as="geometry">
            <mxRectangle x="274" y="330" width="100" height="30" as="alternateBounds" />
          </mxGeometry>
        </mxCell>
        <mxCell id="el5TF62LQUf2bP_EFKbW-56" value="+ RUT int PK" style="text;strokeColor=none;fillColor=none;align=left;verticalAlign=top;spacingLeft=4;spacingRight=4;overflow=hidden;rotatable=0;points=[[0,0.5],[1,0.5]];portConstraint=eastwest;whiteSpace=wrap;html=1;" vertex="1" parent="el5TF62LQUf2bP_EFKbW-55">
          <mxGeometry y="26" width="196" height="26" as="geometry" />
        </mxCell>
        <mxCell id="el5TF62LQUf2bP_EFKbW-57" value="+ nombreUsuario(35) VarChar" style="text;strokeColor=none;fillColor=none;align=left;verticalAlign=top;spacingLeft=4;spacingRight=4;overflow=hidden;rotatable=0;points=[[0,0.5],[1,0.5]];portConstraint=eastwest;whiteSpace=wrap;html=1;" vertex="1" parent="el5TF62LQUf2bP_EFKbW-55">
          <mxGeometry y="52" width="196" height="26" as="geometry" />
        </mxCell>
        <mxCell id="el5TF62LQUf2bP_EFKbW-52" value="+ idEspecial int FK" style="text;strokeColor=none;fillColor=none;align=left;verticalAlign=top;spacingLeft=4;spacingRight=4;overflow=hidden;rotatable=0;points=[[0,0.5],[1,0.5]];portConstraint=eastwest;whiteSpace=wrap;html=1;" vertex="1" parent="el5TF62LQUf2bP_EFKbW-55">
          <mxGeometry y="78" width="196" height="26" as="geometry" />
        </mxCell>
        <mxCell id="el5TF62LQUf2bP_EFKbW-58" value="&lt;div&gt;+ eMail (35) VarChar&lt;/div&gt;" style="text;strokeColor=none;fillColor=none;align=left;verticalAlign=top;spacingLeft=4;spacingRight=4;overflow=hidden;rotatable=0;points=[[0,0.5],[1,0.5]];portConstraint=eastwest;whiteSpace=wrap;html=1;" vertex="1" parent="el5TF62LQUf2bP_EFKbW-55">
          <mxGeometry y="104" width="196" height="26" as="geometry" />
        </mxCell>
        <mxCell id="el5TF62LQUf2bP_EFKbW-59" value="Solicitúd" style="swimlane;fontStyle=0;childLayout=stackLayout;horizontal=1;startSize=26;fillColor=none;horizontalStack=0;resizeParent=1;resizeParentMax=0;resizeLast=0;collapsible=1;marginBottom=0;whiteSpace=wrap;html=1;" vertex="1" parent="1">
          <mxGeometry x="500" y="340" width="196" height="104" as="geometry">
            <mxRectangle x="274" y="330" width="100" height="30" as="alternateBounds" />
          </mxGeometry>
        </mxCell>
        <mxCell id="el5TF62LQUf2bP_EFKbW-60" value="+ idSolicitud int PK" style="text;strokeColor=none;fillColor=none;align=left;verticalAlign=top;spacingLeft=4;spacingRight=4;overflow=hidden;rotatable=0;points=[[0,0.5],[1,0.5]];portConstraint=eastwest;whiteSpace=wrap;html=1;" vertex="1" parent="el5TF62LQUf2bP_EFKbW-59">
          <mxGeometry y="26" width="196" height="26" as="geometry" />
        </mxCell>
        <mxCell id="el5TF62LQUf2bP_EFKbW-64" value="+ idTopico int FK" style="text;strokeColor=none;fillColor=none;align=left;verticalAlign=top;spacingLeft=4;spacingRight=4;overflow=hidden;rotatable=0;points=[[0,0.5],[1,0.5]];portConstraint=eastwest;whiteSpace=wrap;html=1;" vertex="1" parent="el5TF62LQUf2bP_EFKbW-59">
          <mxGeometry y="52" width="196" height="26" as="geometry" />
        </mxCell>
        <mxCell id="el5TF62LQUf2bP_EFKbW-66" value="+ Estado int" style="text;strokeColor=none;fillColor=none;align=left;verticalAlign=top;spacingLeft=4;spacingRight=4;overflow=hidden;rotatable=0;points=[[0,0.5],[1,0.5]];portConstraint=eastwest;whiteSpace=wrap;html=1;" vertex="1" parent="el5TF62LQUf2bP_EFKbW-59">
          <mxGeometry y="78" width="196" height="26" as="geometry" />
        </mxCell>
        <mxCell id="el5TF62LQUf2bP_EFKbW-70" style="edgeStyle=orthogonalEdgeStyle;rounded=0;orthogonalLoop=1;jettySize=auto;html=1;entryX=0.529;entryY=1.083;entryDx=0;entryDy=0;entryPerimeter=0;" edge="1" parent="1" source="el5TF62LQUf2bP_EFKbW-8" target="el5TF62LQUf2bP_EFKbW-66">
          <mxGeometry relative="1" as="geometry">
            <Array as="points">
              <mxPoint x="480" y="470" />
              <mxPoint x="604" y="470" />
            </Array>
          </mxGeometry>
        </mxCell>
        <mxCell id="el5TF62LQUf2bP_EFKbW-71" style="edgeStyle=orthogonalEdgeStyle;rounded=0;orthogonalLoop=1;jettySize=auto;html=1;entryX=0.529;entryY=1.115;entryDx=0;entryDy=0;entryPerimeter=0;" edge="1" parent="1" source="el5TF62LQUf2bP_EFKbW-34" target="el5TF62LQUf2bP_EFKbW-66">
          <mxGeometry relative="1" as="geometry">
            <Array as="points">
              <mxPoint x="718" y="470" />
              <mxPoint x="604" y="470" />
            </Array>
          </mxGeometry>
        </mxCell>
        <mxCell id="el5TF62LQUf2bP_EFKbW-76" value="" style="endArrow=none;html=1;rounded=0;" edge="1" parent="1" source="el5TF62LQUf2bP_EFKbW-26" target="el5TF62LQUf2bP_EFKbW-59">
          <mxGeometry width="50" height="50" relative="1" as="geometry">
            <mxPoint x="700" y="230" as="sourcePoint" />
            <mxPoint x="465.07" y="350" as="targetPoint" />
            <Array as="points">
              <mxPoint x="720" y="310" />
              <mxPoint x="598" y="310" />
            </Array>
          </mxGeometry>
        </mxCell>
        <mxCell id="el5TF62LQUf2bP_EFKbW-77" value="ambiente" style="swimlane;fontStyle=0;childLayout=stackLayout;horizontal=1;startSize=26;fillColor=none;horizontalStack=0;resizeParent=1;resizeParentMax=0;resizeLast=0;collapsible=1;marginBottom=0;whiteSpace=wrap;html=1;" vertex="1" parent="1">
          <mxGeometry x="350" y="50" width="196" height="78" as="geometry">
            <mxRectangle x="274" y="330" width="100" height="30" as="alternateBounds" />
          </mxGeometry>
        </mxCell>
        <mxCell id="el5TF62LQUf2bP_EFKbW-78" value="+ idTopico int FK" style="text;strokeColor=none;fillColor=none;align=left;verticalAlign=top;spacingLeft=4;spacingRight=4;overflow=hidden;rotatable=0;points=[[0,0.5],[1,0.5]];portConstraint=eastwest;whiteSpace=wrap;html=1;" vertex="1" parent="el5TF62LQUf2bP_EFKbW-77">
          <mxGeometry y="26" width="196" height="26" as="geometry" />
        </mxCell>
        <mxCell id="el5TF62LQUf2bP_EFKbW-80" value="+ RUT int FK" style="text;strokeColor=none;fillColor=none;align=left;verticalAlign=top;spacingLeft=4;spacingRight=4;overflow=hidden;rotatable=0;points=[[0,0.5],[1,0.5]];portConstraint=eastwest;whiteSpace=wrap;html=1;" vertex="1" parent="el5TF62LQUf2bP_EFKbW-77">
          <mxGeometry y="52" width="196" height="26" as="geometry" />
        </mxCell>
        <mxCell id="el5TF62LQUf2bP_EFKbW-88" value="" style="endArrow=none;html=1;rounded=0;" edge="1" parent="1" source="el5TF62LQUf2bP_EFKbW-55" target="el5TF62LQUf2bP_EFKbW-77">
          <mxGeometry relative="1" as="geometry">
            <mxPoint x="320" y="340" as="sourcePoint" />
            <mxPoint x="480" y="340" as="targetPoint" />
          </mxGeometry>
        </mxCell>
        <mxCell id="el5TF62LQUf2bP_EFKbW-89" value="3" style="resizable=0;html=1;whiteSpace=wrap;align=left;verticalAlign=bottom;" connectable="0" vertex="1" parent="el5TF62LQUf2bP_EFKbW-88">
          <mxGeometry x="-1" relative="1" as="geometry">
            <mxPoint x="-4" y="-10" as="offset" />
          </mxGeometry>
        </mxCell>
        <mxCell id="el5TF62LQUf2bP_EFKbW-90" value="1" style="resizable=0;html=1;whiteSpace=wrap;align=right;verticalAlign=bottom;" connectable="0" vertex="1" parent="el5TF62LQUf2bP_EFKbW-88">
          <mxGeometry x="1" relative="1" as="geometry">
            <mxPoint x="13" y="18" as="offset" />
          </mxGeometry>
        </mxCell>
        <mxCell id="el5TF62LQUf2bP_EFKbW-92" value="" style="endArrow=none;html=1;rounded=0;" edge="1" parent="1" source="el5TF62LQUf2bP_EFKbW-55" target="el5TF62LQUf2bP_EFKbW-95">
          <mxGeometry relative="1" as="geometry">
            <mxPoint x="330" y="300" as="sourcePoint" />
            <mxPoint x="380" y="230" as="targetPoint" />
          </mxGeometry>
        </mxCell>
        <mxCell id="el5TF62LQUf2bP_EFKbW-93" value="1" style="resizable=0;html=1;whiteSpace=wrap;align=left;verticalAlign=bottom;" connectable="0" vertex="1" parent="el5TF62LQUf2bP_EFKbW-92">
          <mxGeometry x="-1" relative="1" as="geometry">
            <mxPoint x="-15" y="20" as="offset" />
          </mxGeometry>
        </mxCell>
        <mxCell id="el5TF62LQUf2bP_EFKbW-94" value="1..20" style="resizable=0;html=1;whiteSpace=wrap;align=right;verticalAlign=bottom;" connectable="0" vertex="1" parent="el5TF62LQUf2bP_EFKbW-92">
          <mxGeometry x="1" relative="1" as="geometry">
            <mxPoint x="45" as="offset" />
          </mxGeometry>
        </mxCell>
        <mxCell id="el5TF62LQUf2bP_EFKbW-95" value="ingeniero_detalle" style="swimlane;fontStyle=0;childLayout=stackLayout;horizontal=1;startSize=26;fillColor=none;horizontalStack=0;resizeParent=1;resizeParentMax=0;resizeLast=0;collapsible=1;marginBottom=0;whiteSpace=wrap;html=1;" vertex="1" parent="1">
          <mxGeometry x="184" y="270" width="196" height="130" as="geometry">
            <mxRectangle x="274" y="330" width="100" height="30" as="alternateBounds" />
          </mxGeometry>
        </mxCell>
        <mxCell id="el5TF62LQUf2bP_EFKbW-96" value="+ RUT int PK" style="text;strokeColor=none;fillColor=none;align=left;verticalAlign=top;spacingLeft=4;spacingRight=4;overflow=hidden;rotatable=0;points=[[0,0.5],[1,0.5]];portConstraint=eastwest;whiteSpace=wrap;html=1;" vertex="1" parent="el5TF62LQUf2bP_EFKbW-95">
          <mxGeometry y="26" width="196" height="26" as="geometry" />
        </mxCell>
        <mxCell id="el5TF62LQUf2bP_EFKbW-97" value="+ nombreUsuario(35) VarChar" style="text;strokeColor=none;fillColor=none;align=left;verticalAlign=top;spacingLeft=4;spacingRight=4;overflow=hidden;rotatable=0;points=[[0,0.5],[1,0.5]];portConstraint=eastwest;whiteSpace=wrap;html=1;" vertex="1" parent="el5TF62LQUf2bP_EFKbW-95">
          <mxGeometry y="52" width="196" height="26" as="geometry" />
        </mxCell>
        <mxCell id="el5TF62LQUf2bP_EFKbW-98" value="+ idEspecial int FK" style="text;strokeColor=none;fillColor=none;align=left;verticalAlign=top;spacingLeft=4;spacingRight=4;overflow=hidden;rotatable=0;points=[[0,0.5],[1,0.5]];portConstraint=eastwest;whiteSpace=wrap;html=1;" vertex="1" parent="el5TF62LQUf2bP_EFKbW-95">
          <mxGeometry y="78" width="196" height="26" as="geometry" />
        </mxCell>
        <mxCell id="el5TF62LQUf2bP_EFKbW-99" value="&lt;div&gt;+ eMail (35) VarChar&lt;/div&gt;" style="text;strokeColor=none;fillColor=none;align=left;verticalAlign=top;spacingLeft=4;spacingRight=4;overflow=hidden;rotatable=0;points=[[0,0.5],[1,0.5]];portConstraint=eastwest;whiteSpace=wrap;html=1;" vertex="1" parent="el5TF62LQUf2bP_EFKbW-95">
          <mxGeometry y="104" width="196" height="26" as="geometry" />
        </mxCell>
        <mxCell id="el5TF62LQUf2bP_EFKbW-101" value="" style="endArrow=none;html=1;rounded=0;entryX=0.001;entryY=0.162;entryDx=0;entryDy=0;entryPerimeter=0;" edge="1" parent="1" source="el5TF62LQUf2bP_EFKbW-95" target="el5TF62LQUf2bP_EFKbW-59">
          <mxGeometry relative="1" as="geometry">
            <mxPoint x="420" y="330" as="sourcePoint" />
            <mxPoint x="461" y="367" as="targetPoint" />
          </mxGeometry>
        </mxCell>
        <mxCell id="el5TF62LQUf2bP_EFKbW-102" value="3" style="resizable=0;html=1;whiteSpace=wrap;align=left;verticalAlign=bottom;" connectable="0" vertex="1" parent="el5TF62LQUf2bP_EFKbW-101">
          <mxGeometry x="-1" relative="1" as="geometry" />
        </mxCell>
        <mxCell id="el5TF62LQUf2bP_EFKbW-103" value="1" style="resizable=0;html=1;whiteSpace=wrap;align=right;verticalAlign=bottom;" connectable="0" vertex="1" parent="el5TF62LQUf2bP_EFKbW-101">
          <mxGeometry x="1" relative="1" as="geometry">
            <mxPoint x="-10" y="-10" as="offset" />
          </mxGeometry>
        </mxCell>
      </root>
    </mxGraphModel>
  </diagram>
</mxfile>
